<svg width="10" height="10" viewBox="0 0 10 10" fill="none" xmlns="http://www.w3.org/2000/svg">
<path d="M5 0C7.76097 0 10 2.23904 10 5.00001C10 7.76165 7.76097 10 5 10C2.23903 10 0 7.76299 0 5.00001C0 2.2377 2.23903 0 5 0Z" fill="#26A17B"/>
<path d="M5.70437 4.44262V3.69783H7.40538V2.56494H2.77342V3.69783H4.47511V4.44262C3.09328 4.50619 2.05273 4.77989 2.05273 5.10778C2.05273 5.43567 3.09328 5.70935 4.47511 5.77292V8.15515H5.7057V5.77292C7.08618 5.70935 8.12407 5.43567 8.12407 5.10778C8.12206 4.77989 7.08486 4.50619 5.70437 4.44262ZM5.7057 5.57151C5.6709 5.57285 5.49291 5.58421 5.0961 5.58421C4.77758 5.58421 4.55542 5.57619 4.47646 5.57151V5.57283C3.2559 5.51863 2.34315 5.30652 2.34315 5.05223C2.34315 4.79795 3.25456 4.58582 4.47646 4.53161V5.35937C4.55676 5.36472 4.78493 5.37879 5.10145 5.37879C5.48087 5.37879 5.67091 5.36339 5.70704 5.35937V4.52894C6.92626 4.58314 7.83633 4.79528 7.83633 5.04956C7.83365 5.30384 6.92358 5.51597 5.7057 5.57151Z" fill="white"/>
</svg>
