<svg width="24" height="24" viewBox="0 0 24 24" fill="none" xmlns="http://www.w3.org/2000/svg">
<g id="chronos_icono-01 2" clip-path="url(#clip0_2156_5831)">
<path id="Vector" d="M23.3511 11.9943V11.9827C23.3511 5.71202 18.2492 0.609619 11.9785 0.609619C5.70775 0.609619 0.605347 5.71202 0.605347 11.9827C0.605347 18.2535 5.70727 23.3554 11.9785 23.3554C18.2377 23.3554 23.3319 18.2727 23.3511 12.0178V11.9943ZM22.6513 12.0178C22.6494 12.8603 22.484 13.6945 22.1641 14.4739H18.3039C18.9998 14.1938 19.6212 13.7561 20.1191 13.1951C20.6171 12.6341 20.9782 11.9652 21.1738 11.241C21.3694 10.5168 21.3944 9.75715 21.2466 9.02172C21.0989 8.28628 20.7825 7.59516 20.3223 7.00274C21.0512 7.61452 21.6374 8.37841 22.0397 9.24078C22.442 10.1032 22.6508 11.0431 22.6513 11.9947V12.0178ZM17.4639 10.7698C17.4643 11.0396 17.3846 11.3034 17.235 11.5279C17.0854 11.7524 16.8726 11.9275 16.6234 12.031C16.3743 12.1345 16.1 12.1618 15.8354 12.1094C15.5707 12.057 15.3275 11.9273 15.1366 11.7366C14.9457 11.546 14.8157 11.303 14.7629 11.0384C14.7101 10.7739 14.737 10.4996 14.8402 10.2503C14.9433 10.001 15.1181 9.7879 15.3424 9.63797C15.5667 9.48805 15.8304 9.40802 16.1002 9.40802C16.4619 9.4084 16.8086 9.55226 17.0642 9.80802C17.3199 10.0638 17.4637 10.4105 17.4639 10.7722V10.7698ZM14.0367 10.7698C14.0369 11.0919 14.1125 11.4095 14.2574 11.6971C14.4023 11.9848 14.6125 12.2345 14.8712 12.4264C15.1299 12.6183 15.43 12.7469 15.7473 12.8021C16.0647 12.8572 16.3905 12.8374 16.6988 12.744C16.4123 12.9735 16.0749 13.1309 15.715 13.2031C15.3551 13.2753 14.9832 13.2603 14.6303 13.1591C14.2774 13.058 13.9539 12.8737 13.6869 12.6218C13.4199 12.3699 13.2172 12.0577 13.0957 11.7113C12.9743 11.3649 12.9376 10.9945 12.9887 10.631C13.0399 10.2675 13.1775 9.92158 13.3899 9.6222C13.6023 9.32282 13.8833 9.07871 14.2095 8.91033C14.5357 8.74194 14.8975 8.65419 15.2645 8.65442C15.4588 8.65427 15.6524 8.67863 15.8405 8.7269C15.3426 8.79017 14.8848 9.03273 14.5527 9.4092C14.2207 9.78566 14.0373 10.2702 14.0367 10.7722V10.7698ZM15.2756 13.9469C15.84 13.9453 16.3925 13.7843 16.8694 13.4826C17.3464 13.1809 17.7285 12.7506 17.9718 12.2413C18.2151 11.7321 18.3096 11.1644 18.2446 10.6038C18.1795 10.0432 17.9575 9.51228 17.6041 9.07224C17.2506 8.63219 16.7802 8.30086 16.2468 8.11637C15.7134 7.93189 15.1387 7.90174 14.589 8.02939C14.0392 8.15705 13.5366 8.43732 13.1391 8.83796C12.7415 9.23861 12.4652 9.74334 12.3418 10.2941C12.3337 10.1871 12.3284 10.0795 12.3284 9.97058C12.3282 9.09595 12.6038 8.24353 13.1161 7.53463C13.6284 6.82573 14.3512 6.29645 15.1817 6.02213C16.0122 5.7478 16.9081 5.74239 17.7418 6.00668C18.5756 6.27096 19.3048 6.79147 19.8256 7.49414C20.3464 8.1968 20.6323 9.04583 20.6427 9.9204C20.653 10.795 20.3873 11.6505 19.8832 12.3653C19.3792 13.0801 18.6626 13.6178 17.8353 13.9017C17.0081 14.1857 16.1123 14.2015 15.2756 13.9469ZM11.6276 9.97058C11.6288 10.9377 11.9183 11.8825 12.4592 12.6843C13.0001 13.486 13.7677 14.1083 14.6641 14.4715H10.0652C9.74299 13.6874 9.57732 12.8478 9.57751 12C9.57751 9.15458 11.4058 6.72962 13.9484 5.83346C13.24 6.26745 12.6547 6.8759 12.2485 7.60064C11.8424 8.32538 11.6289 9.14219 11.6285 9.97298L11.6276 9.97058ZM15.7637 15.1714V18.528C14.6594 18.4676 13.5884 18.1284 12.6507 17.5419C11.713 16.9554 10.9392 16.1408 10.4017 15.1743L15.7637 15.1714ZM16.4636 15.1714H21.8266C21.2894 16.1385 20.5158 16.9536 19.5781 17.5406C18.6404 18.1276 17.5692 18.4673 16.4645 18.528L16.4636 15.1714ZM11.9785 22.656C6.09319 22.656 1.30519 17.8675 1.30519 11.9827C1.30519 6.09794 6.09319 1.30946 11.9785 1.30946C16.1391 1.30946 19.7506 3.70274 21.5103 7.18466C20.8329 6.423 20.0018 5.81345 19.0718 5.39615C18.1418 4.97884 17.134 4.76324 16.1146 4.76354C12.1244 4.76354 8.88055 8.00978 8.88055 12C8.88055 15.9903 12.1268 19.237 16.117 19.237C17.1255 19.2374 18.1228 19.0265 19.0448 18.6179C19.9667 18.2093 20.7929 17.6121 21.47 16.8648C19.6925 20.3011 16.1055 22.656 11.9785 22.656Z" fill="url(#paint0_linear_2156_5831)"/>
</g>
<defs>
<linearGradient id="paint0_linear_2156_5831" x1="23.3511" y1="11.9827" x2="0.605347" y2="11.9827" gradientUnits="userSpaceOnUse">
<stop stop-color="#9E5BF1"/>
<stop offset="1" stop-color="#356FF4"/>
</linearGradient>
<clipPath id="clip0_2156_5831">
<rect width="24" height="24" fill="white"/>
</clipPath>
</defs>
</svg>
