<svg width="220" height="46" viewBox="0 0 220 46" fill="none" xmlns="http://www.w3.org/2000/svg">
<g id="chronos_logotipo-02 1">
<g id="Capa 2">
<path id="Vector" d="M43.63 22.5394V22.5169C43.6214 16.9823 41.4082 11.6776 37.4769 7.76857C33.5455 3.85957 28.2177 1.66619 22.6644 1.67048C17.1111 1.67477 11.7867 3.87638 7.8614 7.79145C3.93614 11.7065 1.7312 17.0147 1.7312 22.5493C1.7312 28.0839 3.93614 33.392 7.8614 37.3071C11.7867 41.2221 17.1111 43.4238 22.6644 43.428C28.2177 43.4323 33.5455 41.2389 37.4769 37.33C41.4082 33.421 43.6214 28.1162 43.63 22.5816V22.5366V22.5394ZM42.3394 22.5844C42.3339 24.1292 42.029 25.6584 41.4413 27.0878H34.3189C35.6026 26.573 36.749 25.7683 37.6677 24.7369C38.5865 23.7056 39.2524 22.4758 39.6132 21.1443C39.9741 19.8129 40.0199 18.4161 39.747 17.0641C39.4742 15.712 38.8902 14.4415 38.0411 13.3525C39.3858 14.4769 40.4673 15.8808 41.2099 17.4659C41.9524 19.051 42.3379 20.7788 42.3394 22.5282V22.5844ZM32.7599 20.2934C32.7599 20.7895 32.6123 21.2744 32.3357 21.6869C32.059 22.0994 31.6659 22.4208 31.2059 22.6105C30.746 22.8003 30.2399 22.8498 29.7517 22.7528C29.2635 22.6558 28.8151 22.4167 28.4633 22.0656C28.1115 21.7146 27.8721 21.2675 27.7753 20.7809C27.6786 20.2942 27.7288 19.7899 27.9197 19.3317C28.1106 18.8735 28.4335 18.482 28.8477 18.2068C29.2619 17.9316 29.7487 17.785 30.2465 17.7855C30.9131 17.787 31.552 18.0518 32.0231 18.5219C32.4942 18.9919 32.7592 19.629 32.7599 20.2934ZM26.4395 20.2934C26.4403 21.2994 26.8416 22.264 27.5554 22.9754C28.2691 23.6867 29.237 24.0867 30.2465 24.0874C30.6196 24.0864 30.9906 24.0315 31.3479 23.9242C30.7835 24.3723 30.1136 24.6692 29.4018 24.7869C28.6899 24.9046 27.9597 24.8391 27.2804 24.5967C26.6011 24.3543 25.9952 23.9429 25.5201 23.4017C25.045 22.8604 24.7165 22.2072 24.5658 21.5039C24.415 20.8007 24.447 20.0707 24.6587 19.3832C24.8704 18.6957 25.2548 18.0736 25.7754 17.5757C26.2961 17.0777 26.9357 16.7206 27.6336 16.5382C28.3316 16.3557 29.0647 16.3539 29.7635 16.533C28.8473 16.6525 28.0059 17.0998 27.3959 17.7915C26.786 18.4833 26.4491 19.3724 26.448 20.2934H26.4395ZM28.7242 26.1337C29.7659 26.1325 30.7861 25.8382 31.6673 25.2845C32.5485 24.7308 33.2548 23.9403 33.705 23.0041C34.1551 22.0679 34.3307 21.0239 34.2116 19.9926C34.0925 18.9612 33.6835 17.9843 33.0318 17.1745C32.38 16.3646 31.5119 15.7547 30.5276 15.415C29.5432 15.0753 28.4826 15.0196 27.4679 15.2544C26.4532 15.4891 25.5257 16.0048 24.7921 16.7419C24.0586 17.479 23.5489 18.4076 23.3217 19.4208C23.3047 19.2238 23.2963 19.0268 23.2963 18.8269C23.294 17.3151 23.7418 15.8365 24.583 14.5784C25.4241 13.3202 26.6209 12.339 28.0217 11.7589C29.4226 11.1788 30.9646 11.0259 32.4527 11.3195C33.9408 11.6131 35.3081 12.34 36.3815 13.4082C37.455 14.4765 38.1864 15.8381 38.4831 17.3207C38.7799 18.8034 38.6287 20.3404 38.0487 21.7374C37.4687 23.1344 36.486 24.3285 35.2248 25.1687C33.9636 26.0089 32.4808 26.4573 30.9638 26.4573C30.208 26.4612 29.456 26.3521 28.7327 26.1337H28.7242ZM21.9972 18.8157C21.9991 20.5937 22.533 22.3307 23.5305 23.8047C24.5281 25.2787 25.9441 26.4228 27.5974 27.0906H19.125C18.5058 25.5838 18.2006 23.9672 18.2281 22.3391C18.2556 20.7111 18.6151 19.1056 19.2848 17.6204C19.9545 16.1352 20.9204 14.8013 22.1237 13.6998C23.3269 12.5984 24.7425 11.7524 26.2842 11.2134C24.9777 12.0117 23.8984 13.1305 23.1494 14.4629C22.4003 15.7953 22.0066 17.2968 22.0056 18.8241L21.9972 18.8157ZM29.6223 28.3854V34.5522C27.5861 34.4404 25.6116 33.8161 23.883 32.7377C22.1545 31.6593 20.7284 30.1619 19.7379 28.3854H29.6223ZM30.9129 28.3854H40.7974C39.8069 30.1619 38.3807 31.6593 36.6522 32.7377C34.9237 33.8161 32.9491 34.4404 30.9129 34.5522V28.3854ZM22.6495 42.1432C19.1452 42.1436 15.7043 41.212 12.6819 39.4445C9.65955 37.6769 7.16526 35.1375 5.45653 32.0883C3.74779 29.0392 2.88652 25.5908 2.96164 22.0991C3.03675 18.6074 4.04552 15.199 5.88381 12.2256C7.7221 9.25223 10.3233 6.82169 13.4189 5.18486C16.5145 3.54804 19.9924 2.76424 23.4934 2.91438C26.9945 3.06451 30.3919 4.14315 33.335 6.03893C36.2781 7.93472 38.6602 10.579 40.2354 13.6987C38.4384 11.691 36.0727 10.2735 33.4507 9.63341C30.8287 8.99332 28.0735 9.1607 25.5489 10.1135C23.0242 11.0662 20.8489 12.7596 19.3099 14.97C17.7708 17.1804 16.9406 19.804 16.9286 22.4944C16.9167 25.1849 17.7236 27.8157 19.2429 30.0396C20.7622 32.2635 22.9225 33.976 25.4385 34.951C27.9546 35.926 30.7081 36.1177 33.3358 35.5008C35.9634 34.8839 38.3416 33.4873 40.1563 31.4955C38.4995 34.7004 35.9897 37.3891 32.9018 39.2671C29.8139 41.1452 26.267 42.1402 22.6495 42.1432Z" fill="url(#paint0_linear_2168_24711)"/>
<path id="Vector_2" d="M70.7417 30.136H58.5161C57.7962 30.1411 57.0891 29.9462 56.4742 29.5731C55.8667 29.2125 55.359 28.7066 54.9972 28.1011C54.6229 27.4882 54.4273 26.7836 54.4324 26.0661V18.9705C54.4268 18.2494 54.6224 17.541 54.9972 16.9243C55.3622 16.3184 55.8727 15.8125 56.4827 15.4522C57.0981 15.0804 57.8048 14.8856 58.5245 14.8893H70.7502C71.4716 14.8863 72.1799 15.081 72.7977 15.4522C73.4056 15.8123 73.9134 16.3184 74.2747 16.9243C74.6425 17.5432 74.8321 18.2512 74.8226 18.9705H72.7779C72.7825 18.7027 72.733 18.4368 72.6323 18.1885C72.5316 17.9402 72.3818 17.7147 72.1918 17.5253C72.0018 17.336 71.7755 17.1867 71.5263 17.0863C71.2772 16.9859 71.0104 16.9366 70.7417 16.9411H58.5161C58.2478 16.9358 57.9812 16.985 57.7327 17.0856C57.4841 17.1863 57.2586 17.3363 57.0701 17.5266C56.8776 17.7139 56.7261 17.9389 56.625 18.1873C56.5239 18.4358 56.4754 18.7025 56.4827 18.9705V26.0774C56.48 26.3446 56.5309 26.6097 56.6323 26.8571C56.7337 27.1045 56.8836 27.3292 57.0732 27.5182C57.2628 27.7072 57.4883 27.8566 57.7365 27.9576C57.9848 28.0587 58.2508 28.1093 58.5189 28.1067H70.7446C71.0131 28.1109 71.2798 28.0613 71.5287 27.9608C71.7777 27.8602 72.0038 27.7109 72.1937 27.5216C72.3836 27.3324 72.5335 27.107 72.6343 26.8589C72.7352 26.6108 72.7849 26.345 72.7808 26.0774H74.817C74.8278 26.7925 74.6401 27.4968 74.2747 28.1123C73.9144 28.719 73.4064 29.2253 72.7977 29.5844C72.1768 29.9543 71.4651 30.1453 70.7417 30.136Z" fill="white"/>
<path id="Vector_3" d="M98.4434 30.1359H96.4043V23.5385H80.1063V30.1359H78.0701V14.9005H80.1063V21.5092H96.4043V14.9005H98.4434V30.1359Z" fill="white"/>
<path id="Vector_4" d="M122.144 30.136H119.98L117.272 25.0697H104.307V30.136H102.27V14.9006H118.049C118.77 14.8986 119.478 15.0932 120.096 15.4635C120.704 15.8236 121.212 16.3297 121.573 16.9355C121.94 17.555 122.129 18.2626 122.121 18.9817V21.0111C122.133 21.8702 121.858 22.7088 121.339 23.3951C120.833 24.0816 120.127 24.5957 119.317 24.8671L122.144 30.136ZM118.049 23.0291C118.318 23.0321 118.584 22.9818 118.833 22.881C119.082 22.7802 119.309 22.631 119.499 22.4421C119.69 22.2532 119.841 22.0284 119.943 21.7808C120.046 21.5332 120.098 21.2677 120.096 20.9998V18.9705C120.103 18.7021 120.053 18.4352 119.951 18.1868C119.849 17.9383 119.697 17.7135 119.503 17.5266C119.314 17.3353 119.087 17.1846 118.837 17.0839C118.587 16.9833 118.318 16.9347 118.049 16.9411H104.295V23.0291H118.049Z" fill="white"/>
<path id="Vector_5" d="M142.619 30.136H129.345C128.626 30.1407 127.92 29.9458 127.306 29.5731C126.699 29.2125 126.191 28.7066 125.829 28.1011C125.455 27.4882 125.259 26.7836 125.264 26.0661V18.9705C125.259 18.2494 125.454 17.541 125.829 16.9243C126.192 16.3194 126.699 15.8137 127.306 15.4522C127.921 15.0808 128.627 14.886 129.345 14.8893H142.619C143.34 14.8873 144.048 15.082 144.666 15.4522C145.274 15.8114 145.781 16.3177 146.14 16.9243C146.514 17.5416 146.709 18.2496 146.705 18.9705V26.0774C146.709 26.7947 146.514 27.499 146.14 28.1123C145.782 28.7195 145.275 29.226 144.666 29.5844C144.048 29.9526 143.339 30.1435 142.619 30.136ZM142.619 28.1067C142.888 28.1136 143.155 28.0648 143.405 27.9636C143.654 27.8624 143.88 27.7108 144.067 27.5185C144.258 27.3306 144.409 27.1059 144.51 26.8581C144.611 26.6104 144.66 26.3447 144.655 26.0774V18.9705C144.659 18.7028 144.609 18.4371 144.508 18.189C144.408 17.9409 144.258 17.7155 144.068 17.5262C143.878 17.3369 143.652 17.1876 143.403 17.0871C143.154 16.9866 142.887 16.937 142.619 16.9411H129.345C129.077 16.9381 128.811 16.9886 128.563 17.0895C128.315 17.1905 128.089 17.3399 127.9 17.529C127.71 17.718 127.561 17.943 127.46 18.1905C127.359 18.4381 127.308 18.7033 127.312 18.9705V26.0774C127.309 26.3444 127.36 26.6092 127.461 26.8564C127.562 27.1036 127.712 27.3283 127.901 27.5172C128.091 27.7061 128.316 27.8556 128.564 27.9568C128.812 28.058 129.077 28.109 129.345 28.1067H142.619Z" fill="white"/>
<path id="Vector_6" d="M170.784 30.1359H168.748L152.447 17.4927V30.1359H150.411V14.9005H152.447L168.748 27.5437V14.9005H170.784V30.1359Z" fill="white"/>
<path id="Vector_7" d="M191.818 30.136H178.567C177.847 30.1403 177.141 29.9455 176.525 29.5731C175.918 29.2126 175.412 28.7066 175.051 28.1011C174.677 27.4882 174.481 26.7836 174.486 26.0661V18.9705C174.481 18.2495 174.676 17.5411 175.051 16.9243C175.413 16.3195 175.919 15.8137 176.525 15.4522C177.141 15.0811 177.848 14.8863 178.567 14.8893H191.818C192.539 14.8863 193.248 15.081 193.866 15.4522C194.473 15.8123 194.981 16.3184 195.343 16.9243C195.711 17.543 195.902 18.2509 195.893 18.9705V26.0774C195.901 26.7933 195.711 27.4976 195.343 28.1123C194.982 28.719 194.474 29.2253 193.866 29.5844C193.247 29.9528 192.538 30.1438 191.818 30.136ZM191.818 28.1067C192.087 28.1124 192.355 28.0632 192.605 27.962C192.854 27.8609 193.081 27.7099 193.27 27.5185C193.461 27.3306 193.611 27.1059 193.712 26.8581C193.813 26.6104 193.862 26.3447 193.857 26.0774V18.9705C193.861 18.7026 193.811 18.4366 193.71 18.1883C193.609 17.94 193.459 17.7145 193.269 17.5252C193.079 17.3359 192.852 17.1866 192.603 17.0863C192.354 16.9859 192.087 16.9366 191.818 16.9411H178.567C178.299 16.9385 178.033 16.9892 177.785 17.0903C177.537 17.1913 177.311 17.3407 177.121 17.5297C176.932 17.7186 176.782 17.9434 176.681 18.1908C176.579 18.4382 176.528 18.7033 176.531 18.9705V26.0774C176.529 26.3445 176.58 26.6094 176.681 26.8566C176.783 27.1038 176.933 27.3285 177.122 27.5173C177.312 27.7062 177.537 27.8556 177.785 27.9568C178.033 28.058 178.299 28.109 178.567 28.1067H191.818Z" fill="white"/>
<path id="Vector_8" d="M214.776 30.1361H202.914C202.258 30.1418 201.612 29.9738 201.042 29.6491C200.48 29.3311 200.009 28.8758 199.672 28.3263C199.333 27.7712 199.156 27.1327 199.161 26.4827H201.197C201.193 26.6982 201.235 26.9121 201.32 27.1105C201.405 27.3088 201.53 27.4872 201.689 27.6339C201.851 27.7901 202.043 27.9124 202.254 27.9936C202.464 28.0748 202.689 28.1132 202.914 28.1067H214.776C215.001 28.1132 215.226 28.0748 215.436 27.9936C215.647 27.9124 215.839 27.7901 216.001 27.6339C216.159 27.4866 216.284 27.3081 216.368 27.1098C216.452 26.9116 216.494 26.6979 216.49 26.4827V25.1655C216.493 24.9499 216.452 24.7359 216.368 24.5372C216.283 24.3386 216.159 24.1595 216.001 24.0115C215.839 23.8553 215.647 23.733 215.436 23.6518C215.226 23.5706 215.001 23.5321 214.776 23.5386H202.914C202.257 23.5444 201.611 23.3743 201.042 23.0461C200.481 22.7264 200.01 22.2715 199.672 21.7232C199.333 21.1703 199.155 20.5335 199.161 19.8853V18.5568C199.153 17.909 199.329 17.2721 199.667 16.7188C200.004 16.1699 200.475 15.7148 201.036 15.3959C201.605 15.0674 202.251 14.8963 202.909 14.9006H214.77C215.428 14.8951 216.076 15.0662 216.645 15.3959C217.21 15.7131 217.684 16.1684 218.024 16.7188C218.366 17.2708 218.544 17.908 218.538 18.5568H216.498C216.501 18.3429 216.459 18.1308 216.375 17.934C216.291 17.7372 216.167 17.5601 216.01 17.414C215.847 17.2578 215.655 17.1355 215.445 17.0543C215.234 16.9731 215.01 16.9347 214.784 16.9412H202.923C202.697 16.9347 202.473 16.9731 202.262 17.0543C202.052 17.1355 201.86 17.2578 201.697 17.414C201.54 17.5596 201.414 17.7365 201.33 17.9333C201.245 18.1302 201.203 18.3426 201.206 18.5568V19.8853C201.202 20.1007 201.244 20.3145 201.329 20.5128C201.414 20.7111 201.539 20.8895 201.697 21.0364C201.86 21.1926 202.052 21.3149 202.262 21.3961C202.473 21.4773 202.697 21.5158 202.923 21.5093H214.784C215.442 21.503 216.089 21.6721 216.659 21.999C217.219 22.316 217.688 22.7692 218.024 23.3163C218.367 23.8718 218.545 24.513 218.538 25.1655V26.4827C218.543 27.1331 218.365 27.772 218.024 28.3263C217.689 28.8756 217.22 29.3309 216.659 29.6491C216.087 29.9766 215.436 30.1448 214.776 30.1361Z" fill="white"/>
</g>
</g>
<defs>
<linearGradient id="paint0_linear_2168_24711" x1="43.63" y1="22.5197" x2="1.66904" y2="22.5197" gradientUnits="userSpaceOnUse">
<stop stop-color="#9E5BF1"/>
<stop offset="1" stop-color="#356FF4"/>
</linearGradient>
</defs>
</svg>
