<svg width="38" height="38" viewBox="0 0 38 38" fill="none" xmlns="http://www.w3.org/2000/svg">
<path d="M4.35085 32.0625C3.58789 32.0625 2.93593 31.7908 2.39495 31.2475C1.85398 30.7042 1.5835 30.0511 1.5835 29.2881C1.5835 28.5252 1.8539 27.8733 2.39472 27.3323C2.93553 26.7913 3.58566 26.5208 4.34511 26.5208C4.4832 26.5208 4.61822 26.5274 4.75016 26.5406C4.88211 26.5538 5.05363 26.5868 5.26475 26.6396L13.1814 18.7229C13.1286 18.5118 13.0956 18.3403 13.0825 18.2083C13.0693 18.0764 13.0627 17.9414 13.0627 17.8033C13.0627 17.0438 13.3343 16.3937 13.8776 15.8529C14.4209 15.3121 15.0741 15.0417 15.837 15.0417C16.5999 15.0417 17.2519 15.3139 17.7929 15.8584C18.3338 16.4029 18.6043 17.0575 18.6043 17.8222C18.6043 17.8685 18.5647 18.1687 18.4856 18.7229L22.8397 23.0771C23.0509 23.0243 23.2224 22.9913 23.3543 22.9781C23.4863 22.9649 23.6182 22.9583 23.7502 22.9583C23.8821 22.9583 24.0141 22.9649 24.146 22.9781C24.2779 22.9913 24.4495 23.0243 24.6606 23.0771L30.9939 16.7437C30.9411 16.5326 30.9081 16.3611 30.895 16.2292C30.8818 16.0972 30.8752 15.9622 30.8752 15.8241C30.8752 15.0647 31.1468 14.4145 31.6901 13.8737C32.2334 13.3329 32.8866 13.0625 33.6495 13.0625C34.4124 13.0625 35.0644 13.3342 35.6054 13.8775C36.1463 14.4208 36.4168 15.0739 36.4168 15.8369C36.4168 16.5998 36.1464 17.2517 35.6056 17.7927C35.0648 18.3337 34.4147 18.6042 33.6552 18.6042C33.5171 18.6042 33.3821 18.5976 33.2502 18.5844C33.1182 18.5712 32.9467 18.5382 32.7356 18.4854L26.4022 24.8187C26.455 25.0299 26.488 25.2014 26.5012 25.3333C26.5144 25.4653 26.521 25.6003 26.521 25.7384C26.521 26.4978 26.2493 27.148 25.706 27.6888C25.1627 28.2296 24.5096 28.5 23.7466 28.5C22.9837 28.5 22.3318 28.2296 21.7908 27.6888C21.2498 27.148 20.9793 26.4978 20.9793 25.7384C20.9793 25.6003 20.9859 25.4653 20.9991 25.3333C21.0123 25.2014 21.0453 25.0299 21.0981 24.8187L16.7439 20.4646C16.5328 20.5174 16.3613 20.5503 16.2293 20.5635C16.0974 20.5767 15.9621 20.5833 15.8236 20.5833C15.7774 20.5833 15.4772 20.5437 14.9231 20.4646L7.00641 28.3812C7.05919 28.5924 7.09218 28.7639 7.10537 28.8958C7.11857 29.0278 7.12516 29.1628 7.12516 29.3009C7.12516 30.0603 6.8535 30.7105 6.31018 31.2513C5.76689 31.7921 5.11378 32.0625 4.35085 32.0625ZM6.3335 14.5667L5.53181 12.835L3.80016 12.0333L5.53181 11.2316L6.3335 9.49999L7.13518 11.2316L8.86683 12.0333L7.13518 12.835L6.3335 14.5667ZM23.7502 12.5479L22.5343 9.92421L19.9106 8.70833L22.5343 7.49245L23.7502 4.86874L24.966 7.49245L27.5897 8.70833L24.966 9.92421L23.7502 12.5479Z" fill="url(#paint0_linear_579_10606)"/>
<defs>
<linearGradient id="paint0_linear_579_10606" x1="2.26383" y1="29.1598" x2="37.3579" y2="10.5852" gradientUnits="userSpaceOnUse">
<stop stop-color="#3F4AB3"/>
<stop offset="1" stop-color="#7A64D0"/>
</linearGradient>
</defs>
</svg>
