<svg width="16" height="15" viewBox="0 0 16 15" fill="none" xmlns="http://www.w3.org/2000/svg">
<g id="ph:currency-eth">
<path id="Vector" d="M13.5247 7.21054L8.3684 0.648038C8.32454 0.592227 8.26858 0.547107 8.20473 0.516081C8.14089 0.485054 8.07083 0.468933 7.99985 0.468933C7.92887 0.468933 7.85881 0.485054 7.79496 0.516081C7.73112 0.547107 7.67516 0.592227 7.63129 0.648038L2.47504 7.21054C2.41023 7.2931 2.375 7.39503 2.375 7.49999C2.375 7.60496 2.41023 7.70688 2.47504 7.78944L7.63129 14.3519C7.67516 14.4078 7.73112 14.4529 7.79496 14.4839C7.85881 14.5149 7.92887 14.531 7.99985 14.531C8.07083 14.531 8.14089 14.5149 8.20473 14.4839C8.26858 14.4529 8.32454 14.4078 8.3684 14.3519L13.5247 7.78944C13.5895 7.70688 13.6247 7.60496 13.6247 7.49999C13.6247 7.39503 13.5895 7.2931 13.5247 7.21054ZM8.4686 2.29276L12.419 7.32011L8.4686 9.11601V2.29276ZM7.5311 9.11601L3.58071 7.32011L7.5311 2.29276V9.11601ZM7.5311 10.1455V12.7072L4.40044 8.72284L7.5311 10.1455ZM8.4686 10.1455L11.5993 8.72226L8.4686 12.7066V10.1455Z" fill="url(#paint0_linear_1965_6464)"/>
</g>
<defs>
<linearGradient id="paint0_linear_1965_6464" x1="2.59472" y1="13.03" x2="15.6745" y2="8.70642" gradientUnits="userSpaceOnUse">
<stop stop-color="#3F4AB3"/>
<stop offset="1" stop-color="#7A64D0"/>
</linearGradient>
</defs>
</svg>
