<svg width="20" height="20" viewBox="0 0 20 20" fill="none" xmlns="http://www.w3.org/2000/svg">
<path d="M10 17.5C7.90278 17.5 6.12847 17.1771 4.67708 16.5312C3.22569 15.8854 2.5 15.0972 2.5 14.1667V5.83333C2.5 4.91667 3.23264 4.13194 4.69792 3.47917C6.16319 2.82639 7.93056 2.5 10 2.5C12.0694 2.5 13.8368 2.82639 15.3021 3.47917C16.7674 4.13194 17.5 4.91667 17.5 5.83333V14.1667C17.5 15.0972 16.7743 15.8854 15.3229 16.5312C13.8715 17.1771 12.0972 17.5 10 17.5ZM10 7.33333C11.1944 7.33333 12.4201 7.14931 13.6771 6.78125C14.934 6.41319 15.7431 6 16.1042 5.54167C15.7292 5.09722 14.9132 4.6875 13.6562 4.3125C12.3993 3.9375 11.1806 3.75 10 3.75C8.77778 3.75 7.54861 3.93056 6.3125 4.29167C5.07639 4.65278 4.26389 5.06944 3.875 5.54167C4.26389 6.02778 5.06944 6.44792 6.29167 6.80208C7.51389 7.15625 8.75 7.33333 10 7.33333ZM9.97917 11.7917C10.5625 11.7917 11.1458 11.7604 11.7292 11.6979C12.3125 11.6354 12.8715 11.5417 13.4062 11.4167C13.941 11.2917 14.4514 11.1389 14.9375 10.9583C15.4236 10.7778 15.8611 10.5764 16.25 10.3542V7.125C15.8472 7.34722 15.4028 7.54861 14.9167 7.72917C14.4306 7.90972 13.9167 8.0625 13.375 8.1875C12.8333 8.3125 12.2778 8.40972 11.7083 8.47917C11.1389 8.54861 10.5625 8.58333 9.97917 8.58333C9.39583 8.58333 8.8125 8.54861 8.22917 8.47917C7.64583 8.40972 7.08681 8.3125 6.55208 8.1875C6.01736 8.0625 5.51042 7.90972 5.03125 7.72917C4.55208 7.54861 4.125 7.34722 3.75 7.125V10.3542C4.125 10.5764 4.54861 10.7778 5.02083 10.9583C5.49306 11.1389 5.99653 11.2917 6.53125 11.4167C7.06597 11.5417 7.625 11.6354 8.20833 11.6979C8.79167 11.7604 9.38194 11.7917 9.97917 11.7917ZM10 16.25C10.6667 16.25 11.3542 16.191 12.0625 16.0729C12.7708 15.9549 13.4201 15.7986 14.0104 15.6042C14.6007 15.4097 15.1007 15.1944 15.5104 14.9583C15.9201 14.7222 16.1667 14.4792 16.25 14.2292V11.625C15.8611 11.8472 15.4236 12.0451 14.9375 12.2188C14.4514 12.3924 13.941 12.5417 13.4062 12.6667C12.8715 12.7917 12.316 12.8854 11.7396 12.9479C11.1632 13.0104 10.5764 13.0417 9.97917 13.0417C9.38194 13.0417 8.79167 13.0104 8.20833 12.9479C7.625 12.8854 7.06597 12.7917 6.53125 12.6667C5.99653 12.5417 5.49306 12.3924 5.02083 12.2188C4.54861 12.0451 4.125 11.8472 3.75 11.625V14.25C3.81944 14.4861 4.05556 14.7257 4.45833 14.9688C4.86111 15.2118 5.36111 15.4271 5.95833 15.6146C6.55556 15.8021 7.20833 15.9549 7.91667 16.0729C8.625 16.191 9.31944 16.25 10 16.25Z" fill="url(#paint0_linear_579_10569)"/>
<defs>
<linearGradient id="paint0_linear_579_10569" x1="2.79297" y1="15.8989" x2="19.3175" y2="9.07098" gradientUnits="userSpaceOnUse">
<stop stop-color="#3F4AB3"/>
<stop offset="1" stop-color="#7A64D0"/>
</linearGradient>
</defs>
</svg>
