<svg width="15" height="19" viewBox="0 0 15 19" fill="none" xmlns="http://www.w3.org/2000/svg">
<path d="M13.2003 8.54167C12.9607 8.22917 12.669 7.95833 12.3982 7.6875C11.7003 7.0625 10.9086 6.61458 10.2419 5.95833C8.68985 4.4375 8.3461 1.92708 9.33568 0C8.3461 0.239583 7.48152 0.78125 6.74193 1.375C4.04402 3.54167 2.98152 7.36458 4.25235 10.6458C4.29402 10.75 4.33568 10.8542 4.33568 10.9896C4.33568 11.2188 4.17943 11.4271 3.9711 11.5104C3.73152 11.6146 3.48152 11.5521 3.2836 11.3854C3.22413 11.3362 3.17462 11.2761 3.13777 11.2083C1.96068 9.71875 1.77318 7.58333 2.56485 5.875C0.825267 7.29167 -0.122649 9.6875 0.0127674 11.9479C0.0752674 12.4688 0.137767 12.9896 0.314851 13.5104C0.460684 14.1354 0.741934 14.7604 1.05443 15.3125C2.17943 17.1146 4.12735 18.4063 6.2211 18.6667C8.45027 18.9479 10.8357 18.5417 12.544 17C14.4503 15.2708 15.1169 12.5 14.1378 10.125L14.0024 9.85417C13.7836 9.375 13.2003 8.54167 13.2003 8.54167ZM9.9086 15.1042C9.61693 15.3542 9.13777 15.625 8.76277 15.7292C7.5961 16.1458 6.42943 15.5625 5.74193 14.875C6.98152 14.5833 7.7211 13.6667 7.93985 12.7396C8.11693 11.9062 7.7836 11.2188 7.64818 10.4167C7.52318 9.64583 7.54402 8.98958 7.82527 8.27083C8.02318 8.66667 8.23152 9.0625 8.48152 9.375C9.2836 10.4167 10.544 10.875 10.8149 12.2917C10.8565 12.4375 10.8774 12.5833 10.8774 12.7396C10.9086 13.5938 10.5336 14.5313 9.9086 15.1042Z" fill="url(#paint0_linear_408_8993)"/>
<defs>
<linearGradient id="paint0_linear_408_8993" x1="0.284883" y1="16.7481" x2="17.335" y2="11.2675" gradientUnits="userSpaceOnUse">
<stop stop-color="#3F4AB3"/>
<stop offset="1" stop-color="#7A64D0"/>
</linearGradient>
</defs>
</svg>
