<svg width="20" height="20" viewBox="0 0 20 20" fill="none" xmlns="http://www.w3.org/2000/svg">
<path d="M11.6457 17.9792C11.3957 18.2292 11.0936 18.3542 10.7394 18.3542C10.3853 18.3542 10.0832 18.2292 9.83317 17.9792L2.02067 10.1667C1.88178 10.0278 1.78803 9.88193 1.73942 9.72916C1.69081 9.57638 1.6665 9.41666 1.6665 9.24999V2.91666C1.6665 2.55555 1.78456 2.25693 2.02067 2.02082C2.25678 1.78471 2.55539 1.66666 2.9165 1.66666H9.24984C9.4165 1.66666 9.58317 1.69096 9.74984 1.73957C9.9165 1.78818 10.0693 1.88193 10.2082 2.02082L17.979 9.79166C18.2429 10.0555 18.3748 10.3646 18.3748 10.7187C18.3748 11.0729 18.2429 11.3819 17.979 11.6458L11.6457 17.9792ZM10.7915 17.125L17.1248 10.7917L9.24984 2.91666H2.9165V9.24999L10.7915 17.125ZM5.104 6.16666C5.39567 6.16666 5.64914 6.05902 5.86442 5.84374C6.0797 5.62846 6.18734 5.37499 6.18734 5.08332C6.18734 4.79166 6.0797 4.53818 5.86442 4.32291C5.64914 4.10763 5.39567 3.99999 5.104 3.99999C4.81234 3.99999 4.55887 4.10763 4.34359 4.32291C4.12831 4.53818 4.02067 4.79166 4.02067 5.08332C4.02067 5.37499 4.12831 5.62846 4.34359 5.84374C4.55887 6.05902 4.81234 6.16666 5.104 6.16666Z" fill="url(#paint0_linear_579_10564)"/>
<defs>
<linearGradient id="paint0_linear_579_10564" x1="1.99284" y1="16.5729" x2="20.3926" y2="8.96067" gradientUnits="userSpaceOnUse">
<stop stop-color="#3F4AB3"/>
<stop offset="1" stop-color="#7A64D0"/>
</linearGradient>
</defs>
</svg>
