<svg width="38" height="38" viewBox="0 0 38 38" fill="none" xmlns="http://www.w3.org/2000/svg">
<path d="M8.78734 27.9062C10.4498 26.7451 12.0991 25.8545 13.7353 25.2344C15.3714 24.6142 17.1262 24.3042 18.9998 24.3042C20.8734 24.3042 22.6349 24.6142 24.2842 25.2344C25.9335 25.8545 27.5894 26.7451 29.2519 27.9062C30.413 26.4812 31.2377 25.043 31.7259 23.5917C32.2141 22.1403 32.4582 20.6097 32.4582 19C32.4582 15.1736 31.1717 11.9739 28.5988 9.40103C26.0259 6.82811 22.8262 5.54166 18.9998 5.54166C15.1734 5.54166 11.9738 6.82811 9.40088 9.40103C6.82796 11.9739 5.5415 15.1736 5.5415 19C5.5415 20.6097 5.7922 22.1403 6.29359 23.5917C6.79498 25.043 7.62623 26.4812 8.78734 27.9062ZM18.9925 20.1875C17.4668 20.1875 16.1828 19.6639 15.1405 18.6166C14.0981 17.5693 13.5769 16.2829 13.5769 14.7572C13.5769 13.2316 14.1006 11.9476 15.1478 10.9052C16.1951 9.86284 17.4816 9.34166 19.0072 9.34166C20.5328 9.34166 21.8169 9.86529 22.8592 10.9126C23.9016 11.9598 24.4228 13.2463 24.4228 14.7719C24.4228 16.2976 23.8991 17.5816 22.8519 18.6239C21.8046 19.6663 20.5181 20.1875 18.9925 20.1875ZM19.0184 34.8333C16.8421 34.8333 14.7908 34.4177 12.8644 33.5864C10.938 32.7552 9.25574 31.6205 7.81755 30.1823C6.37935 28.7441 5.24463 27.0649 4.41338 25.1447C3.58213 23.2245 3.1665 21.1727 3.1665 18.9895C3.1665 16.8062 3.58213 14.758 4.41338 12.8448C5.24463 10.9316 6.37935 9.25589 7.81755 7.8177C9.25574 6.3795 10.9349 5.24478 12.8552 4.41353C14.7754 3.58228 16.8271 3.16666 19.0104 3.16666C21.1936 3.16666 23.2419 3.58228 25.155 4.41353C27.0682 5.24478 28.7439 6.3795 30.1821 7.8177C31.6203 9.25589 32.755 10.932 33.5863 12.846C34.4175 14.7601 34.8332 16.8052 34.8332 18.9815C34.8332 21.1577 34.4175 23.209 33.5863 25.1354C32.755 27.0618 31.6203 28.7441 30.1821 30.1823C28.7439 31.6205 27.0678 32.7552 25.1538 33.5864C23.2397 34.4177 21.1946 34.8333 19.0184 34.8333ZM18.9998 32.4583C20.4512 32.4583 21.8696 32.2472 23.255 31.825C24.6405 31.4028 26.0061 30.6639 27.3519 29.6083C26.0061 28.6583 24.6339 27.9326 23.2353 27.4312C21.8366 26.9299 20.4248 26.6792 18.9998 26.6792C17.5748 26.6792 16.163 26.9299 14.7644 27.4312C13.3658 27.9326 11.9936 28.6583 10.6478 29.6083C11.9936 30.6639 13.3592 31.4028 14.7446 31.825C16.13 32.2472 17.5484 32.4583 18.9998 32.4583ZM18.9998 17.8125C19.8971 17.8125 20.6294 17.5288 21.1967 16.9614C21.7641 16.3941 22.0478 15.6618 22.0478 14.7646C22.0478 13.8674 21.7641 13.1351 21.1967 12.5677C20.6294 12.0003 19.8971 11.7167 18.9998 11.7167C18.1026 11.7167 17.3703 12.0003 16.803 12.5677C16.2356 13.1351 15.9519 13.8674 15.9519 14.7646C15.9519 15.6618 16.2356 16.3941 16.803 16.9614C17.3703 17.5288 18.1026 17.8125 18.9998 17.8125Z" fill="url(#paint0_linear_579_10627)"/>
<defs>
<linearGradient id="paint0_linear_579_10627" x1="3.78499" y1="31.4532" x2="38.6701" y2="17.0387" gradientUnits="userSpaceOnUse">
<stop stop-color="#3F4AB3"/>
<stop offset="1" stop-color="#7A64D0"/>
</linearGradient>
</defs>
</svg>
