<svg width="20" height="20" viewBox="0 0 20 20" fill="none" xmlns="http://www.w3.org/2000/svg">
<path d="M0.791504 16.6667V14.7083C0.791504 14.2222 0.916504 13.7812 1.1665 13.3854C1.4165 12.9896 1.76373 12.6944 2.20817 12.5C3.22206 12.0555 4.13525 11.7361 4.94775 11.5417C5.76025 11.3472 6.59706 11.25 7.45817 11.25C8.31928 11.25 9.15262 11.3472 9.95817 11.5417C10.7637 11.7361 11.6734 12.0555 12.6873 12.5C13.1318 12.6944 13.4825 12.9896 13.7394 13.3854C13.9964 13.7812 14.1248 14.2222 14.1248 14.7083V16.6667H0.791504ZM15.3748 16.6667V14.7083C15.3748 13.8333 15.1526 13.1146 14.7082 12.5521C14.2637 11.9896 13.6804 11.5347 12.9582 11.1875C13.9165 11.2986 14.8193 11.4618 15.6665 11.6771C16.5137 11.8924 17.2012 12.1389 17.729 12.4167C18.1873 12.6805 18.5484 13.0069 18.8123 13.3958C19.0762 13.7847 19.2082 14.2222 19.2082 14.7083V16.6667H15.3748ZM7.45817 9.97916C6.5415 9.97916 5.7915 9.68749 5.20817 9.10416C4.62484 8.52082 4.33317 7.77082 4.33317 6.85416C4.33317 5.93749 4.62484 5.18749 5.20817 4.60416C5.7915 4.02082 6.5415 3.72916 7.45817 3.72916C8.37484 3.72916 9.12484 4.02082 9.70817 4.60416C10.2915 5.18749 10.5832 5.93749 10.5832 6.85416C10.5832 7.77082 10.2915 8.52082 9.70817 9.10416C9.12484 9.68749 8.37484 9.97916 7.45817 9.97916ZM14.9582 6.85416C14.9582 7.77082 14.6665 8.52082 14.0832 9.10416C13.4998 9.68749 12.7498 9.97916 11.8332 9.97916C11.6804 9.97916 11.5103 9.96874 11.3228 9.94791C11.1353 9.92707 10.9651 9.88888 10.8123 9.83332C11.1457 9.4861 11.3991 9.05902 11.5728 8.55207C11.7464 8.04513 11.8332 7.47916 11.8332 6.85416C11.8332 6.22916 11.7464 5.67707 11.5728 5.19791C11.3991 4.71874 11.1457 4.27777 10.8123 3.87499C10.9651 3.83332 11.1353 3.7986 11.3228 3.77082C11.5103 3.74305 11.6804 3.72916 11.8332 3.72916C12.7498 3.72916 13.4998 4.02082 14.0832 4.60416C14.6665 5.18749 14.9582 5.93749 14.9582 6.85416ZM2.0415 15.4167H12.8748V14.7083C12.8748 14.4861 12.8089 14.2708 12.6769 14.0625C12.545 13.8542 12.3818 13.7083 12.1873 13.625C11.1873 13.1805 10.3471 12.8819 9.6665 12.7292C8.98595 12.5764 8.24984 12.5 7.45817 12.5C6.6665 12.5 5.92692 12.5764 5.23942 12.7292C4.55192 12.8819 3.70817 13.1805 2.70817 13.625C2.51373 13.7083 2.354 13.8542 2.229 14.0625C2.104 14.2708 2.0415 14.4861 2.0415 14.7083V15.4167ZM7.45817 8.72916C7.99984 8.72916 8.44775 8.55207 8.80192 8.19791C9.15609 7.84374 9.33317 7.39582 9.33317 6.85416C9.33317 6.31249 9.15609 5.86457 8.80192 5.51041C8.44775 5.15624 7.99984 4.97916 7.45817 4.97916C6.9165 4.97916 6.46859 5.15624 6.11442 5.51041C5.76025 5.86457 5.58317 6.31249 5.58317 6.85416C5.58317 7.39582 5.76025 7.84374 6.11442 8.19791C6.46859 8.55207 6.9165 8.72916 7.45817 8.72916Z" fill="url(#paint0_linear_157_4564)"/>
<defs>
<linearGradient id="paint0_linear_157_4564" x1="1.1512" y1="15.2857" x2="18.7982" y2="4.90587" gradientUnits="userSpaceOnUse">
<stop stop-color="#3F4AB3"/>
<stop offset="1" stop-color="#7A64D0"/>
</linearGradient>
</defs>
</svg>
