<svg width="20" height="20" viewBox="0 0 20 20" fill="none" xmlns="http://www.w3.org/2000/svg">
<path d="M10 20C8.61667 20 7.31667 19.7375 6.1 19.2125C4.88333 18.6875 3.825 17.975 2.925 17.075C2.025 16.175 1.3125 15.1167 0.7875 13.9C0.2625 12.6833 0 11.3833 0 10C0 8.61667 0.2625 7.31667 0.7875 6.1C1.3125 4.88333 2.025 3.825 2.925 2.925C3.825 2.025 4.88333 1.3125 6.1 0.7875C7.31667 0.2625 8.61667 0 10 0C11.3833 0 12.6833 0.2625 13.9 0.7875C15.1167 1.3125 16.175 2.025 17.075 2.925C17.975 3.825 18.6875 4.88333 19.2125 6.1C19.7375 7.31667 20 8.61667 20 10C20 11.3833 19.7375 12.6833 19.2125 13.9C18.6875 15.1167 17.975 16.175 17.075 17.075C16.175 17.975 15.1167 18.6875 13.9 19.2125C12.6833 19.7375 11.3833 20 10 20ZM8.925 18.475V16.425C8.34167 16.425 7.85 16.2083 7.45 15.775C7.05 15.3417 6.85 14.8333 6.85 14.25V13.15L1.725 8.025C1.64167 8.35833 1.58333 8.6875 1.55 9.0125C1.51667 9.3375 1.5 9.66667 1.5 10C1.5 12.1667 2.20417 14.0583 3.6125 15.675C5.02083 17.2917 6.79167 18.225 8.925 18.475ZM16.275 15.775C16.6417 15.375 16.9625 14.95 17.2375 14.5C17.5125 14.05 17.7458 13.5792 17.9375 13.0875C18.1292 12.5958 18.2708 12.0917 18.3625 11.575C18.4542 11.0583 18.5 10.5333 18.5 10C18.5 8.23333 18.0167 6.62917 17.05 5.1875C16.0833 3.74583 14.7917 2.69167 13.175 2.025V2.475C13.175 3.05833 12.975 3.56667 12.575 4C12.175 4.43333 11.6833 4.65 11.1 4.65H8.925V6.825C8.925 7.10833 8.8125 7.34167 8.5875 7.525C8.3625 7.70833 8.10833 7.8 7.825 7.8H5.75V10H12.2C12.4833 10 12.7167 10.1083 12.9 10.325C13.0833 10.5417 13.175 10.7917 13.175 11.075V14.25H14.25C14.7333 14.25 15.1583 14.3917 15.525 14.675C15.8917 14.9583 16.1417 15.325 16.275 15.775Z" fill="url(#paint0_linear_579_10909)"/>
<defs>
<linearGradient id="paint0_linear_579_10909" x1="0.390625" y1="17.8652" x2="22.4233" y2="8.76131" gradientUnits="userSpaceOnUse">
<stop stop-color="#3F4AB3"/>
<stop offset="1" stop-color="#7A64D0"/>
</linearGradient>
</defs>
</svg>
