<svg width="28" height="28" viewBox="0 0 28 28" fill="none" xmlns="http://www.w3.org/2000/svg">
<g clipPath="url(#clip0_1079_6450)">
<path d="M12.5997 20.4539C12.7038 20.454 12.8068 20.4747 12.9029 20.5146C12.9989 20.5546 13.0862 20.6131 13.1597 20.6867C13.2331 20.7604 13.2914 20.8479 13.3311 20.944C13.3707 21.0402 13.3911 21.1433 13.3909 21.2473C13.3908 21.3514 13.3701 21.4544 13.3302 21.5505C13.2902 21.6465 13.2317 21.7338 13.1581 21.8073C13.0844 21.8807 12.997 21.939 12.9008 21.9786C12.8046 22.0183 12.7015 22.0387 12.5975 22.0385C12.3874 22.0382 12.1859 21.9545 12.0376 21.8057C11.8892 21.6569 11.806 21.4552 11.8063 21.2451C11.8066 21.0349 11.8904 20.8335 12.0392 20.6852C12.188 20.5368 12.3896 20.4536 12.5997 20.4539ZM25.0243 15.5546C24.9203 15.5545 24.8173 15.534 24.7212 15.4941C24.6251 15.4542 24.5378 15.3958 24.4643 15.3221C24.3907 15.2485 24.3324 15.1611 24.2927 15.065C24.2529 14.9688 24.2325 14.8658 24.2326 14.7617C24.2327 14.6577 24.2532 14.5547 24.2931 14.4586C24.333 14.3625 24.3914 14.2752 24.4651 14.2016C24.5387 14.1281 24.6261 14.0698 24.7222 14.0301C24.8184 13.9903 24.9214 13.9699 25.0255 13.97C25.2356 13.9701 25.4371 14.0537 25.5856 14.2024C25.734 14.3511 25.8174 14.5527 25.8172 14.7628C25.8171 14.973 25.7335 15.1745 25.5848 15.3229C25.4361 15.4714 25.2345 15.5548 25.0243 15.5546ZM25.0243 12.3132C24.3747 12.3138 23.7518 12.5721 23.2924 13.0315C22.8331 13.4909 22.5747 14.1138 22.5741 14.7634C22.5741 15.026 22.6181 15.2875 22.7037 15.5422L14.6104 19.8509C14.386 19.5251 14.0857 19.2587 13.7354 19.0747C13.3852 18.8907 12.9954 18.7947 12.5997 18.7949C11.6654 18.7949 10.8145 19.3302 10.402 20.1654L3.1314 16.3311C2.36275 15.9277 1.78795 14.6631 1.84881 13.5113C1.88037 12.9105 2.08775 12.4439 2.40445 12.2636C2.60506 12.1509 2.84625 12.1599 3.10322 12.294L3.15055 12.32C5.07781 13.3343 11.3825 16.6557 11.6485 16.7786C12.0576 16.969 12.2853 17.0457 12.9841 16.7143L26.0173 9.93626C26.2089 9.86413 26.432 9.68042 26.432 9.40204C26.432 9.01659 26.0331 8.86443 26.0319 8.86443C25.2903 8.50941 24.1509 7.97632 23.0396 7.45562C20.6638 6.34322 17.9713 5.08318 16.789 4.4633C15.7679 3.92908 14.9463 4.3799 14.7997 4.47007L14.5157 4.61095C9.1938 7.24261 2.07084 10.7703 1.6651 11.0171C0.94041 11.4589 0.490717 12.3391 0.43211 13.4312C0.341946 15.1635 1.22443 16.9702 2.48785 17.6318L10.1766 21.5967C10.2613 22.1791 10.5527 22.7117 10.9976 23.097C11.4425 23.4823 12.0112 23.6946 12.5997 23.6953C13.2425 23.6942 13.8592 23.4409 14.3172 22.9899C14.7752 22.5388 15.0379 21.9261 15.0488 21.2834L23.5175 16.6929C23.9458 17.0288 24.4788 17.2125 25.0243 17.2125C25.674 17.2119 26.2969 16.9536 26.7562 16.4942C27.2156 16.0348 27.474 15.4119 27.4745 14.7623C27.474 14.1126 27.2156 13.4898 26.7562 13.0304C26.2969 12.571 25.674 12.3127 25.0243 12.3121" fill="white"/>
</g>
<defs>
<clipPath id="clip0_1079_6450">
<rect width="27.0492" height="27.0492" fill="white" transform="translate(0.425781 0.42627)"/>
</clipPath>
</defs>
</svg>
