<svg width="28" height="28" viewBox="0 0 28 28" fill="none" xmlns="http://www.w3.org/2000/svg">
<path d="M8.5406 7.99994C11.8217 7.99994 14.4914 10.6697 14.4914 13.9508C14.4914 17.2318 11.8217 19.9016 8.5406 19.9016C5.25954 19.9016 2.58978 17.2318 2.58978 13.9508C2.58978 10.6697 5.25954 7.99994 8.5406 7.99994ZM8.5406 6.91797C4.65634 6.91797 1.50781 10.0665 1.50781 13.9508C1.50781 17.835 4.65634 20.9836 8.5406 20.9836C12.4249 20.9836 15.5734 17.835 15.5734 13.9508C15.5734 10.0665 12.4249 6.91797 8.5406 6.91797ZM19.6308 8.54092C20.7798 8.54092 22.0652 10.8547 22.0652 13.9508C22.0652 17.0468 20.7798 19.3606 19.6308 19.3606C18.4817 19.3606 17.1963 17.0468 17.1963 13.9508C17.1963 10.8547 18.4817 8.54092 19.6308 8.54092ZM19.6308 7.45895C17.6886 7.45895 16.1144 10.3657 16.1144 13.9508C16.1144 17.5359 17.6886 20.4426 19.6308 20.4426C21.5729 20.4426 23.1472 17.5359 23.1472 13.9508C23.1472 10.3657 21.5729 7.45895 19.6308 7.45895ZM25.0406 10.476C25.1921 11.3313 25.3111 12.5047 25.3111 13.9508C25.3111 15.3968 25.1921 16.5702 25.0406 17.4255C24.8891 16.5702 24.7701 15.3968 24.7701 13.9508C24.7701 12.5047 24.8891 11.3313 25.0406 10.476ZM25.0406 7.99994C24.2935 7.99994 23.6882 10.6643 23.6882 13.9508C23.6882 17.2372 24.2935 19.9016 25.0406 19.9016C25.7877 19.9016 26.3931 17.2372 26.3931 13.9508C26.3931 10.6643 25.7877 7.99994 25.0406 7.99994Z" fill="white"/>
</svg>
