<svg width="23" height="28" viewBox="0 0 23 28" fill="none" xmlns="http://www.w3.org/2000/svg">
  <mask id="mask0_1093_7740" style="mask-type:luminance" maskUnits="userSpaceOnUse" x="0" y="0" width="23" height="28">
    <path d="M22.7558 0.42627H0.229492V27.416H22.7558V0.42627Z" fill="white"/>
  </mask>
  <g mask="url(#mask0_1093_7740)">
    <path d="M9.90843 8.85314C9.90843 8.85314 10.4683 8.27351 11.4848 8.27351C12.5014 8.27351 13.0612 8.85314 13.0612 8.85314C19.3226 5.65776 20.1182 1.74901 20.1182 1.74901C19.3226 2.96771 18.0409 3.3244 18.0409 3.3244C15.5805 0.455994 11.4848 0.42627 11.4848 0.42627C11.4848 0.42627 7.40388 0.455994 4.94352 3.30954C4.94352 3.30954 3.66178 2.95284 2.86621 1.73414C2.86621 1.74901 3.66177 5.65776 9.90843 8.85314Z" fill="white"/>
    <path d="M6.82937 10.1758C7.80173 10.8446 9.12767 10.1758 9.12767 10.1758C9.12767 10.1758 7.25662 9.07597 6.26953 8.13965C6.26953 8.13965 5.85702 9.50697 6.82937 10.1758Z" fill="white"/>
    <path d="M11.4851 9.8042C11.4851 9.8042 9.452 10.0569 9.452 12.5388C9.452 14.0251 9.452 14.0251 9.452 14.0251L7.9198 14.9614C7.9198 14.9614 9.84978 15.437 11.4851 20.6239C13.1204 15.437 15.0504 14.9614 15.0504 14.9614L13.5182 14.0251C13.5182 14.0251 13.5182 14.0251 13.5182 12.5388C13.533 10.0717 11.4851 9.8042 11.4851 9.8042Z" fill="white"/>
    <path d="M20.6932 16.1805C20.5017 13.3864 20.8552 7.278 19.382 5.33105C19.382 5.33105 18.4833 6.56462 17.8645 7.18883C17.8645 7.18883 18.3654 8.03597 18.3654 9.1655C18.3654 10.295 17.3341 11.9299 14.9474 11.9299L15.0506 13.2823L17.9087 15.0509C17.9087 15.0509 14.9622 15.4374 13.592 19.0935C12.2219 22.7496 11.4853 25.5882 11.4853 25.5882C11.4853 25.5882 10.7486 22.7496 9.37849 19.0935C8.00835 15.4374 5.06181 15.0509 5.06181 15.0509L7.91995 13.2823L8.02308 11.9299C5.63639 11.9299 4.6051 10.2802 4.6051 9.1655C4.6051 8.05084 5.10601 7.18883 5.10601 7.18883C4.50197 6.56462 3.60328 5.33105 3.60328 5.33105C2.13001 7.278 2.48359 13.3864 2.29207 16.1805C2.10054 18.9597 0.229492 22.5266 0.229492 22.5266C0.730403 22.3037 3.22023 20.0149 3.22023 20.0149L5.50379 23.5521L7.78736 21.4714L11.5 27.3866L15.2126 21.4714L17.4962 23.5521L19.7798 20.0149C19.7798 20.0149 22.2696 22.2888 22.7705 22.5266C22.7558 22.5415 20.8847 18.9597 20.6932 16.1805Z" fill="white"/>
    <path d="M16.155 10.1758C17.1273 9.50697 16.7148 8.13965 16.7148 8.13965C15.713 9.07597 13.8567 10.1758 13.8567 10.1758C13.8567 10.1758 15.1679 10.8297 16.155 10.1758Z" fill="white"/>
  </g>
</svg>
