<svg width="24" height="25" viewBox="0 0 24 25" fill="none" xmlns="http://www.w3.org/2000/svg">
<path d="M12 3.06836C7.038 3.06836 3 7.10636 3 12.0684C3 17.0304 7.038 21.0684 12 21.0684C16.962 21.0684 21 17.0304 21 12.0684C21 7.10636 16.962 3.06836 12 3.06836ZM12 4.56836C16.1512 4.56836 19.5 7.91711 19.5 12.0684C19.5018 13.8638 18.858 15.6001 17.686 16.9603C16.514 18.3205 14.892 19.214 13.116 19.4776V14.2554H15.252L15.5873 12.0856H13.116V10.9006C13.116 10.0006 13.4123 9.20036 14.2545 9.20036H15.6083V7.30736C15.3705 7.27511 14.8673 7.20536 13.9163 7.20536C11.9303 7.20536 10.7662 8.25386 10.7662 10.6434V12.0856H8.72475V14.2554H10.7662V19.4589C9.01481 19.1706 7.42293 18.269 6.27502 16.9151C5.12711 15.5613 4.49797 13.8434 4.5 12.0684C4.5 7.91711 7.84875 4.56836 12 4.56836Z" fill="white"/>
</svg>
