<svg width="28" height="28" viewBox="0 0 28 28" fill="none" xmlns="http://www.w3.org/2000/svg">
<g clipPath="url(#clip0_1093_7714)">
<path d="M25.8653 10.1326L24.3821 8.64941C23.3723 9.47216 21.6254 10.1642 20.5254 10.5226C20.4758 10.5383 20.4285 10.5586 20.3789 10.5767C20.0881 10.8629 19.8041 11.165 19.5381 11.4828L21.7043 13.649L25.7549 17.6996L25.8653 17.5892C27.9233 15.5289 27.9233 12.1906 25.8653 10.1326Z" fill="white"/>
<path d="M25.8653 10.1326L24.3821 8.64941C23.3723 9.47216 21.6254 10.1642 20.5254 10.5226C20.4758 10.5383 20.4285 10.5586 20.3789 10.5767C20.0881 10.8629 19.8041 11.165 19.5381 11.4828L21.7043 13.649L25.7549 17.6996L25.8653 17.5892C27.9233 15.5289 27.9233 12.1906 25.8653 10.1326Z" fill="white"/>
<path d="M6.17659 13.6469L10.394 9.42949C10.5045 9.12744 10.6239 8.82314 10.7569 8.5256C12.0282 5.67641 14.8819 4.70941 17.5666 4.66207C17.9205 4.03543 18.5899 3.61842 19.3428 3.60941L17.668 1.93461C15.61 -0.123385 12.2717 -0.123385 10.2137 1.93461L10.1032 2.04506L2.12598 10.0223L6.17659 14.0729C6.05938 13.9557 6.05938 13.7641 6.17659 13.6469Z" fill="white"/>
<path d="M6.17659 13.6469L10.394 9.42949C10.5045 9.12744 10.6239 8.82314 10.7569 8.5256C12.0282 5.67641 14.8819 4.70941 17.5666 4.66207C17.9205 4.03543 18.5899 3.61842 19.3428 3.60941L17.668 1.93461C15.61 -0.123385 12.2717 -0.123385 10.2137 1.93461L10.1032 2.04506L2.12598 10.0223L6.17659 14.0729C6.05938 13.9557 6.05938 13.7641 6.17659 13.6469Z" fill="white"/>
<path d="M20.7507 5.01751C20.7462 5.01304 20.7462 5.01304 20.7507 5.01751V5.01751Z" fill="white"/>
<path d="M21.7047 13.6471C21.822 13.7643 21.822 13.9559 21.7047 14.0731L17.9742 17.8036L17.0568 18.721L14.5728 21.2051L14.1535 21.6243C14.0363 21.7415 13.8447 21.7415 13.7275 21.6243L9.95186 17.8487L7.4701 15.3669L6.17624 14.0731L2.12563 10.0225L2.01517 10.1329C-0.0428186 12.1909 -0.0428186 15.5292 2.01517 17.5872L2.95288 18.5249L9.99694 25.569L10.2133 25.7854C12.2713 27.8434 15.6097 27.8434 17.6676 25.7854L17.7781 25.6749L25.7554 17.6977L21.7047 13.6471Z" fill="white"/>
<path d="M20.7467 5.01629C20.7467 5.01404 20.7467 5.01404 20.7467 5.01629C20.6002 4.6917 20.3409 4.42121 19.9961 4.26342C19.9848 4.25892 19.9758 4.25215 19.9645 4.24764C19.9194 4.22736 19.8721 4.21158 19.827 4.1958C19.8541 4.3581 19.836 4.53166 19.7662 4.69396C19.7481 4.73453 19.7256 4.77285 19.7008 4.81117C19.4686 5.1876 18.993 5.3499 18.576 5.17183C18.3776 5.08842 18.2266 4.93965 18.1319 4.76383C18.0711 4.84949 18.017 4.94416 17.9741 5.0456C17.645 5.8165 18.0012 6.70687 18.7721 7.03597C19.543 7.36507 20.4334 7.00892 20.7625 6.23802C20.936 5.83002 20.918 5.39047 20.7467 5.01629Z" fill="#242132"/>
<path d="M10.4094 9.38672C10.4049 9.40024 10.3958 9.41377 10.3936 9.42955C9.61142 13.5636 9.22597 14.1451 7.46777 15.3668L8.09216 15.9912C8.50015 15.5877 9.08622 14.8935 9.64073 13.8183C10.3237 12.5019 10.4184 10.5138 10.4094 9.38672Z" fill="white"/>
<path d="M19.3063 11.1948C19.295 11.2038 19.2815 11.2151 19.2725 11.2219C18.8803 11.5374 18.5129 11.9387 18.1928 12.4188C17.228 13.8592 16.6735 16.0118 17.0567 18.7213L17.0545 18.7235C17.0545 18.7235 17.0545 18.7235 17.0545 18.7258L18.5241 17.2831C18.461 17.069 18.4024 16.8458 18.3483 16.6137C17.8411 14.4678 18.2176 13.0544 19.5362 11.4878C19.7008 11.2917 20.0817 10.9018 20.4176 10.5659C20.4041 10.5704 20.3928 10.5749 20.3793 10.5794C20.0118 10.7147 19.6512 10.9221 19.3063 11.1948Z" fill="white"/>
<path d="M18.193 12.4185C17.2283 13.8588 16.6715 16.0115 17.0547 18.7232L17.057 18.7209C16.6738 16.0115 17.2283 13.8588 18.193 12.4185Z" fill="white"/>
<path d="M18.193 12.4185C17.2283 13.8588 16.6715 16.0115 17.0547 18.7232L17.057 18.7209C16.6738 16.0115 17.2283 13.8588 18.193 12.4185Z" fill="white"/>
<path d="M25.4036 6.60759C24.5403 5.39038 21.9233 4.82685 21.9233 4.82685C21.9233 4.82685 21.5671 3.83956 20.6452 3.53074C19.8112 3.25349 18.5557 3.75165 18.5557 3.75165L18.5737 3.76742C18.8126 3.66824 19.0719 3.61189 19.3423 3.60738C19.4077 3.60738 19.4708 3.60738 19.5362 3.61415C20.4378 3.68853 21.1569 4.33095 21.3688 5.16046C25.7643 6.24919 25.7124 7.56333 24.3803 8.64755C24.3284 8.69038 24.2721 8.73321 24.2157 8.77378L24.2383 8.79407C24.2405 8.79632 26.2309 7.77521 25.4036 6.60759Z" fill="white"/>
<path d="M21.3708 5.16294C21.1566 4.33343 20.4398 3.69101 19.5382 3.61663C19.4728 3.61212 19.4075 3.60986 19.3443 3.60986C19.0738 3.61212 18.8146 3.67072 18.5757 3.7699C18.1519 3.94798 17.7958 4.2613 17.5704 4.66253C14.8835 4.70986 12.032 5.67462 10.7607 8.52606C10.6345 8.81007 10.5218 9.0986 10.4136 9.38712C10.4226 10.5142 10.3257 12.5045 9.6472 13.8187C9.09269 14.8939 8.50662 15.5882 8.09863 15.9916L9.95601 17.849L13.7316 21.6246C13.8488 21.7418 14.0404 21.7418 14.1577 21.6246L14.5769 21.2054L17.0587 18.7236C16.6755 16.0119 17.2322 13.8593 18.197 12.4189C18.5193 11.9365 18.8868 11.5353 19.279 11.2175C19.2902 11.2084 19.2993 11.2017 19.3105 11.1927C19.6532 10.9222 20.0161 10.7125 20.3835 10.575C20.397 10.5705 20.4083 10.566 20.4218 10.5615C20.4579 10.548 20.4939 10.5345 20.53 10.5209C21.5714 10.1806 23.1943 9.5404 24.2222 8.77401C24.2786 8.73118 24.3327 8.69061 24.3868 8.64778C25.7144 7.56356 25.7663 6.24941 21.3708 5.16294ZM20.7622 6.23814C20.4331 7.00905 19.5404 7.36519 18.7718 7.0361C18.0009 6.707 17.6447 5.81437 17.9738 5.04573C18.0167 4.94429 18.0708 4.84962 18.1316 4.76396C18.2263 4.93978 18.3773 5.0863 18.5757 5.17195C18.995 5.35003 19.4706 5.18773 19.7005 4.8113C19.705 4.80228 19.7095 4.79327 19.7163 4.78425C19.7343 4.75495 19.7523 4.7279 19.7659 4.69634C19.8357 4.53404 19.8538 4.36048 19.8267 4.19818C19.8741 4.21396 19.9191 4.22974 19.9642 4.25003C19.9755 4.25454 19.9845 4.2613 19.9958 4.26581C20.3407 4.42359 20.5999 4.69409 20.7464 5.01642L20.7486 5.01868C20.7486 5.01868 20.7486 5.01868 20.7464 5.01868C20.8568 5.26437 20.9019 5.53712 20.8726 5.81212C20.8568 5.95413 20.823 6.09839 20.7622 6.23814Z" fill="white"/>
</g>
<defs>
<clipPath id="clip0_1093_7714">
<rect width="27.0492" height="27.0492" fill="white" transform="translate(0.425781 0.327637)"/>
</clipPath>
</defs>
</svg>
