<svg width="21" height="22" viewBox="0 0 21 22" fill="none" xmlns="http://www.w3.org/2000/svg">
<path d="M12.2281 19.7772C11.9656 20.0522 11.6484 20.1897 11.2766 20.1897C10.9047 20.1897 10.5875 20.0522 10.325 19.7772L2.12188 11.1835C1.97604 11.0307 1.8776 10.8703 1.82656 10.7022C1.77552 10.5342 1.75 10.3585 1.75 10.1752V3.2085C1.75 2.81127 1.87396 2.4828 2.12188 2.22308C2.36979 1.96336 2.68333 1.8335 3.0625 1.8335H9.7125C9.8875 1.8335 10.0625 1.86023 10.2375 1.9137C10.4125 1.96718 10.5729 2.0703 10.7188 2.22308L18.8781 10.771C19.1552 11.0613 19.2938 11.4012 19.2938 11.7908C19.2938 12.1804 19.1552 12.5203 18.8781 12.8106L12.2281 19.7772ZM11.3313 18.8377L17.9813 11.871L9.7125 3.2085H3.0625V10.1752L11.3313 18.8377ZM5.35938 6.7835C5.66563 6.7835 5.93177 6.66509 6.15781 6.42829C6.38385 6.19148 6.49688 5.91266 6.49688 5.59183C6.49688 5.271 6.38385 4.99218 6.15781 4.75537C5.93177 4.51857 5.66563 4.40016 5.35938 4.40016C5.05313 4.40016 4.78698 4.51857 4.56094 4.75537C4.3349 4.99218 4.22188 5.271 4.22188 5.59183C4.22188 5.91266 4.3349 6.19148 4.56094 6.42829C4.78698 6.66509 5.05313 6.7835 5.35938 6.7835Z" fill="white"/>
</svg>
