<svg width="28" height="28" viewBox="0 0 28 28" fill="none" xmlns="http://www.w3.org/2000/svg">
<path d="M24.4334 3.66468C24.1699 3.67624 23.9135 3.74957 23.6822 3.84219C23.4532 3.93419 22.1353 4.49672 20.189 5.32884C18.2427 6.16096 15.7128 7.24455 13.2048 8.31904C8.18896 10.468 3.26001 12.5825 3.26001 12.5825L3.29594 12.5687C3.29594 12.5687 2.99845 12.6682 2.69684 12.8783C2.54603 12.9834 2.38379 13.119 2.25095 13.3168C2.11811 13.5146 2.02099 13.7949 2.05759 14.0913C2.18614 15.1326 3.26529 15.4279 3.26529 15.4279L3.26952 15.43L8.08555 17.0783C8.20834 17.488 9.54627 21.9535 9.84058 22.8992C10.0031 23.422 10.1552 23.7236 10.3139 23.9294C10.3933 24.0323 10.4766 24.112 10.5686 24.1703C10.6051 24.1934 10.6436 24.2108 10.6816 24.2263H10.6838C10.6884 24.2284 10.6928 24.2285 10.6975 24.2305L10.6848 24.2274C10.6936 24.2309 10.7024 24.2369 10.7112 24.24C10.7284 24.246 10.7389 24.2458 10.7609 24.2506C11.3124 24.4432 11.7689 24.0858 11.7689 24.0858L11.7879 24.071L14.7464 21.327L19.5476 25.0705L19.6079 25.098C20.4483 25.4711 21.2083 25.263 21.6292 24.9205C22.0501 24.578 22.2156 24.1365 22.2156 24.1365L22.2335 24.09L25.7616 5.70182C25.8518 5.29044 25.8647 4.93484 25.7795 4.61351C25.6944 4.29219 25.4875 4.01286 25.228 3.85804C24.9684 3.70321 24.6969 3.65312 24.4334 3.66468ZM24.4619 4.76461C24.5689 4.75965 24.6483 4.77189 24.6733 4.7868C24.6983 4.80171 24.7095 4.79975 24.7335 4.89034C24.7575 4.98094 24.7705 5.17177 24.705 5.47042L24.7028 5.47676L21.1949 23.7582C21.1866 23.7766 21.1135 23.9457 20.9466 24.0815C20.7763 24.2201 20.587 24.3282 20.0844 24.1175L14.8341 20.0231L14.6862 19.9069L14.683 19.91L13.1129 18.7319L21.9366 8.35074C22.0044 8.27118 22.0477 8.17368 22.0613 8.07003C22.0749 7.96638 22.0581 7.86102 22.0131 7.76669C21.968 7.67236 21.8966 7.5931 21.8075 7.53849C21.7184 7.48387 21.6153 7.45625 21.5108 7.45896C21.4087 7.46161 21.3094 7.49312 21.2245 7.54983L8.45642 16.0619L3.63299 14.4104C3.63299 14.4104 3.15403 14.1439 3.13111 13.9582C3.12983 13.9479 3.12418 13.9572 3.14907 13.9201C3.17396 13.8831 3.23652 13.8205 3.31496 13.7659C3.47183 13.6566 3.65096 13.5905 3.65096 13.5905L3.66892 13.5841L3.68688 13.5767C3.68688 13.5767 8.61609 11.4622 13.6317 9.31331C16.1395 8.23888 18.669 7.15608 20.6148 6.32416C22.5601 5.49246 23.9657 4.89381 24.0847 4.84597C24.2202 4.79171 24.3549 4.76956 24.4619 4.76461ZM18.6104 10.5929L11.9189 18.4657L11.9158 18.4688C11.9053 18.4814 11.8954 18.4945 11.8862 18.5079C11.8756 18.5226 11.8657 18.5377 11.8566 18.5534C11.819 18.6172 11.7949 18.688 11.7858 18.7615C11.7858 18.7629 11.7858 18.7643 11.7858 18.7657L10.9141 22.6858C10.8996 22.6434 10.8895 22.6279 10.8739 22.578V22.5769C10.5971 21.6873 9.33477 17.4759 9.16012 16.8934L18.6104 10.5929ZM12.6744 19.7558L13.8768 20.6581L12.1102 22.2959L12.6744 19.7558Z" fill="white"/>
</svg>
