<svg width="21" height="17" viewBox="0 0 21 17" fill="none" xmlns="http://www.w3.org/2000/svg">
    <path fillRule="evenodd" clipRule="evenodd" d="M5.61628 1.95455C5.37771 1.95455 5.15133 1.97146 4.93651 2.00427C4.92979 2.0053 4.92307 2.00623 4.91633 2.00707C3.83476 2.14182 2.98453 2.60154 2.40235 3.27965C1.81867 3.9595 1.46512 4.9052 1.46512 6.07576V10.9242C1.46512 12.2135 1.8948 13.2314 2.59358 13.9251C3.29236 14.6189 4.31764 15.0455 5.61628 15.0455H15.3837C16.6824 15.0455 17.7076 14.6189 18.4064 13.9251C19.1052 13.2314 19.5349 12.2135 19.5349 10.9242V6.07576C19.5349 4.89728 19.1751 3.94569 18.5823 3.26363C17.9907 2.58312 17.1273 2.12464 16.0317 1.99815C16.0197 1.99677 16.0077 1.99509 15.9958 1.99313C15.8201 1.96405 15.6226 1.95455 15.3837 1.95455H5.61628ZM4.72385 0.565102C5.01375 0.521373 5.31142 0.5 5.61628 0.5H15.3837C15.6471 0.5 15.9314 0.50946 16.2183 0.55538C17.6351 0.722783 18.8409 1.33482 19.6915 2.31333C20.5442 3.29431 21 4.59726 21 6.07576V10.9242C21 12.5441 20.4529 13.9504 19.4424 14.9537C18.4319 15.9569 17.0153 16.5 15.3837 16.5H5.61628C3.98469 16.5 2.56811 15.9569 1.55758 14.9537C0.54706 13.9504 0 12.5441 0 10.9242V6.07576C0 4.60874 0.447378 3.31444 1.2873 2.33611C2.12673 1.35837 3.31909 0.742332 4.72385 0.565102Z" fill="white"/>
    <path fillRule="evenodd" clipRule="evenodd" d="M14.25 8.86364C14.25 7.46205 15.5333 6.31818 17.1058 6.31818H20.2212C20.6513 6.31818 21 6.62899 21 7.0124C21 7.3958 20.6513 7.70661 20.2212 7.70661H17.1058C16.3936 7.70661 15.8077 8.22886 15.8077 8.86364C15.8077 9.49841 16.3936 10.0207 17.1058 10.0207H20.2212C20.6513 10.0207 21 10.3315 21 10.7149C21 11.0983 20.6513 11.4091 20.2212 11.4091H17.1058C15.5333 11.4091 14.25 10.2652 14.25 8.86364Z" fill="white"/>
</svg>
